nColumns=19
nRows=95
DataType=double
version=3
OpenSimVersion=4.1
endheader
time	ground_force_calcn_r_vx	ground_force_calcn_r_vy	ground_force_calcn_r_vz	ground_force_calcn_r_px	ground_force_calcn_r_py	ground_force_calcn_r_pz	ground_force_calcn_r_mx	ground_force_calcn_r_my	ground_force_calcn_r_mz	ground_force_calcn_l_vx	ground_force_calcn_l_vy	ground_force_calcn_l_vz	ground_force_calcn_l_px	ground_force_calcn_l_py	ground_force_calcn_l_pz	ground_force_calcn_l_mx	ground_force_calcn_l_my	ground_force_calcn_l_mz
2.75833	-14.1146	33.2208	-15.7439	1.36748	0	-0.20997	0.357445	-0.841298	0.398705	0	0	0	0	0	0	0	0	0
2.76667	-44.7695	101.791	-29.6929	1.42975	0	-0.247499	-0.907322	2.06296	-0.601773	0	0	0	0	0	0	0	0	0
2.775	-108.982	261.312	-48.1392	1.44395	0	-0.253148	-2.25051	5.39619	-0.99409	0	0	0	0	0	0	0	0	0
2.78333	-188.495	520.139	-65.5932	1.44157	0	-0.25489	-2.97855	8.21912	-1.03649	0	0	0	0	0	0	0	0	0
2.79167	-229.195	828.42	-72.6952	1.42248	0	-0.257129	-2.67077	9.65343	-0.847104	0	0	0	0	0	0	0	0	0
2.8	-224.495	1131.09	-61.6503	1.38715	0	-0.260394	-1.74811	8.80762	-0.480062	0	0	0	0	0	0	0	0	0
2.80833	-232.409	1382.4	-32.0842	1.35031	0	-0.264173	-0.943221	5.61039	-0.130212	0	0	0	0	0	0	0	0	0
2.81667	-265.913	1555.3	6.50023	1.32138	0	-0.26711	-0.172734	1.0103	0.00422246	0	0	0	0	0	0	0	0	0
2.825	-287.844	1669.92	38.6445	1.29573	0	-0.269161	0.653941	-3.79382	-0.0877949	0	0	0	0	0	0	0	0	0
2.83333	-266.826	1760.02	53.9725	1.26473	0	-0.271085	1.19265	-7.86694	-0.241246	0	0	0	0	0	0	0	0	0
2.84167	-202.637	1832.56	55.2146	1.22689	0	-0.272703	1.17631	-10.638	-0.32052	0	0	0	0	0	0	0	0	0
2.85	-125.713	1870.42	52.7867	1.18823	0	-0.273438	0.79819	-11.8758	-0.335159	0	0	0	0	0	0	0	0	0
2.85833	-49.5068	1860.15	52.5953	1.15087	0	-0.273249	0.312937	-11.7582	-0.33246	0	0	0	0	0	0	0	0	0
2.86667	33.7163	1798.92	52.3437	1.11277	0	-0.273106	-0.200498	-10.6975	-0.311268	0	0	0	0	0	0	0	0	0
2.875	119.191	1686.65	48.9726	1.07432	0	-0.27381	-0.645128	-9.12908	-0.265067	0	0	0	0	0	0	0	0	0
2.88333	192.455	1527.31	44.5785	1.03732	0	-0.274742	-0.934471	-7.41591	-0.216452	0	0	0	0	0	0	0	0	0
2.89167	240.432	1328.17	42.5116	1.00268	0	-0.274954	-1.0475	-5.7865	-0.185213	0	0	0	0	0	0	0	0	0
2.9	262.195	1100.52	41.4577	0.968828	0	-0.274339	-1.02763	-4.3133	-0.162486	0	0	0	0	0	0	0	0	0
2.90833	257.648	858.573	37.0915	0.93499	0	-0.273528	-0.897734	-2.99157	-0.12924	0	0	0	0	0	0	0	0	0
2.91667	226.054	621.186	28.1649	0.90295	0	-0.273081	-0.667263	-1.83361	-0.0831366	0	0	0	0	0	0	0	0	0
2.925	178.319	411.807	17.982	0.873984	0	-0.272254	-0.383745	-0.886214	-0.0386975	0	0	0	0	0	0	0	0	0
2.93333	127.513	247.207	10.1377	0.851187	0	-0.268666	-0.113096	-0.219257	-0.00899144	0	0	0	0	0	0	0	0	0
2.94167	82.7652	133.365	5.20567	0.838877	0	-0.258539	0.0751467	0.121089	0.00472649	0	0	0	0	0	0	0	0	0
2.95	47.2691	64.5286	1.99003	0.847258	0	-0.238948	0.12131	0.165604	0.00510713	0	0	0	0	0	0	0	0	0
2.95833	21.6671	28.243	0.0369005	0.920643	0	-0.207314	0.00933323	0.0121658	1.58951e-05	0	0	0	0	0	0	0	0	0
2.96667	6.98754	13.1543	-0.3628	1.06519	0	-0.149632	-0.182969	-0.344447	0.00949996	0	0	0	0	0	0	0	0	0
2.975	0	0	0	0	0	0	0	0	0	0	0	0	0	0	0	0	0	0
2.98333	0	0	0	0	0	0	0	0	0	0	0	0	0	0	0	0	0	0
2.99167	0	0	0	0	0	0	0	0	0	0	0	0	0	0	0	0	0	0
3	0	0	0	0	0	0	0	0	0	0	0	0	0	0	0	0	0	0
3.00833	0	0	0	0	0	0	0	0	0	0	0	0	0	0	0	0	0	0
3.01667	0	0	0	0	0	0	0	0	0	0	0	0	0	0	0	0	0	0
3.025	0	0	0	0	0	0	0	0	0	0	0	0	0	0	0	0	0	0
3.03333	0	0	0	0	0	0	0	0	0	0	0	0	0	0	0	0	0	0
3.04167	0	0	0	0	0	0	0	0	0	0	0	0	0	0	0	0	0	0
3.05	0	0	0	0	0	0	0	0	0	0	0	0	0	0	0	0	0	0
3.05833	0	0	0	0	0	0	0	0	0	0	0	0	0	0	0	0	0	0
3.06667	0	0	0	0	0	0	0	0	0	0	0	0	0	0	0	0	0	0
3.075	0	0	0	0	0	0	0	0	0	0.138986	14.4472	0.018511	1.32033	0	-0.200935	0.0110006	1.14348	0.00146512
3.08333	0	0	0	0	0	0	0	0	0	-10.8341	38.3185	0.269191	1.36534	0	-0.287006	0.195121	-0.69011	-0.00484808
3.09167	0	0	0	0	0	0	0	0	0	-39.6938	109.866	4.41446	1.38516	0	-0.315291	0.992969	-2.74838	-0.110431
3.1	0	0	0	0	0	0	0	0	0	-96.9136	268.126	15.1925	1.39501	0	-0.322161	1.73619	-4.80344	-0.272171
3.10833	0	0	0	0	0	0	0	0	0	-165.402	515.778	31.6887	1.39347	0	-0.319797	2.04745	-6.38463	-0.392263
3.11667	0	0	0	0	0	0	0	0	0	-200.575	807.466	45.5652	1.37379	0	-0.31458	1.70261	-6.85429	-0.386787
3.125	0	0	0	0	0	0	0	0	0	-197.425	1111.53	43.8378	1.33514	0	-0.309327	0.990164	-5.57473	-0.219864
3.13333	0	0	0	0	0	0	0	0	0	-199.527	1406.5	20.5169	1.29318	0	-0.304973	0.355582	-2.50656	-0.0365636
3.14167	0	0	0	0	0	0	0	0	0	-214.828	1652.66	-15.8867	1.25929	0	-0.301164	-0.213011	1.63869	-0.0157524
3.15	0	0	0	0	0	0	0	0	0	-213.908	1833.08	-49.4055	1.22921	0	-0.297756	-0.685775	5.87673	-0.158391
3.15833	0	0	0	0	0	0	0	0	0	-180.805	1958.3	-68.6293	1.19679	0	-0.295273	-0.861514	9.33107	-0.327011
3.16667	0	0	0	0	0	0	0	0	0	-124.764	2033.23	-71.6349	1.16257	0	-0.293776	-0.702902	11.4549	-0.403581
3.175	0	0	0	0	0	0	0	0	0	-65.8583	2052.49	-64.1363	1.13026	0	-0.292933	-0.390406	12.1671	-0.380198
3.18333	0	0	0	0	0	0	0	0	0	-10.2139	2015.61	-54.8595	1.10029	0	-0.292313	-0.0598904	11.8187	-0.321674
3.19167	0	0	0	0	0	0	0	0	0	46.8799	1927.81	-50.1542	1.07046	0	-0.291525	0.26629	10.9505	-0.284888
3.2	0	0	0	0	0	0	0	0	0	99.5595	1790.08	-50.8391	1.04036	0	-0.290248	0.557953	10.032	-0.284913
3.20833	0	0	0	0	0	0	0	0	0	143.257	1600.94	-53.8432	1.01053	0	-0.288195	0.832368	9.30192	-0.312845
3.21667	0	0	0	0	0	0	0	0	0	181.64	1364.39	-56.3009	0.979619	0	-0.285502	1.16107	8.7214	-0.359883
3.225	0	0	0	0	0	0	0	0	0	216.431	1095.35	-57.0189	0.944949	0	-0.282652	1.58907	8.04221	-0.418642
3.23333	0	0	0	0	0	0	0	0	0	232.656	821.305	-54.9213	0.907585	0	-0.279848	1.98202	6.99677	-0.46788
3.24167	0	0	0	0	0	0	0	0	0	212.121	573.071	-48.5977	0.874277	0	-0.277012	2.05272	5.54568	-0.470287
3.25	0	0	0	0	0	0	0	0	0	162.116	371.544	-38.3422	0.851772	0	-0.273524	1.6832	3.85764	-0.398097
3.25833	0	0	0	0	0	0	0	0	0	105.797	221.108	-27.1153	0.842131	0	-0.269274	1.00757	2.10575	-0.258236
3.26667	0	0	0	0	0	0	0	0	0	61.2538	116.578	-18.0093	0.83755	0	-0.267237	0.237274	0.451577	-0.0697611
3.275	0	0	0	0	0	0	0	0	0	32.3307	52.1313	-11.4699	0.825473	0	-0.273653	-0.50348	-0.811831	0.178618
3.28333	0	0	0	0	0	0	0	0	0	14.8908	20.0719	-6.14615	0.84071	0	-0.291021	-1.0815	-1.45779	0.446386
3.29167	0	0	0	0	0	0	0	0	0	0	0	0	0	0	0	0	0	0
3.3	0	0	0	0	0	0	0	0	0	0	0	0	0	0	0	0	0	0
3.30833	0	0	0	0	0	0	0	0	0	0	0	0	0	0	0	0	0	0
3.31667	0	0	0	0	0	0	0	0	0	0	0	0	0	0	0	0	0	0
3.325	0	0	0	0	0	0	0	0	0	0	0	0	0	0	0	0	0	0
3.33333	0	0	0	0	0	0	0	0	0	0	0	0	0	0	0	0	0	0
3.34167	0	0	0	0	0	0	0	0	0	0	0	0	0	0	0	0	0	0
3.35	0	0	0	0	0	0	0	0	0	0	0	0	0	0	0	0	0	0
3.35833	0	0	0	0	0	0	0	0	0	0	0	0	0	0	0	0	0	0
3.36667	0	0	0	0	0	0	0	0	0	0	0	0	0	0	0	0	0	0
3.375	0	0	0	0	0	0	0	0	0	0	0	0	0	0	0	0	0	0
3.38333	0	0	0	0	0	0	0	0	0	0	0	0	0	0	0	0	0	0
3.39167	0	0	0	0	0	0	0	0	0	0	0	0	0	0	0	0	0	0
3.4	-1.1004	13.8812	-5.73859	1.22239	0	-0.149681	0.257507	-3.24837	1.3429	0	0	0	0	0	0	0	0	0
3.40833	-12.231	41.7214	-14.0725	1.33816	0	-0.227914	0.390299	-1.33136	0.449062	0	0	0	0	0	0	0	0	0
3.41667	-46.5978	118.801	-26.4639	1.36218	0	-0.261637	-0.449553	1.14614	-0.255311	0	0	0	0	0	0	0	0	0
3.425	-111.206	271.345	-41.1914	1.37078	0	-0.271782	-1.55201	3.78695	-0.574877	0	0	0	0	0	0	0	0	0
3.43333	-177.477	487.104	-53.5805	1.36775	0	-0.275832	-2.24201	6.15344	-0.676866	0	0	0	0	0	0	0	0	0
3.44167	-198.491	731.882	-57.6371	1.34358	0	-0.278661	-2.08307	7.68077	-0.604875	0	0	0	0	0	0	0	0	0
3.45	-184.746	992.823	-48.8686	1.30128	0	-0.282146	-1.41024	7.57861	-0.373033	0	0	0	0	0	0	0	0	0
3.45833	-184.026	1250.91	-25.7945	1.25951	0	-0.286389	-0.833929	5.6686	-0.11689	0	0	0	0	0	0	0	0	0
3.46667	-200.344	1477.27	8.28035	1.22631	0	-0.29041	-0.346325	2.55369	0.0143138	0	0	0	0	0	0	0	0	0
3.475	-204.891	1659.88	44.1647	1.19614	0	-0.2939	0.112256	-0.909421	-0.0241971	0	0	0	0	0	0	0	0	0
3.48333	-175.777	1801.13	70.9318	1.16269	0	-0.296772	0.383336	-3.92792	-0.154689	0	0	0	0	0	0	0	0	0
3.49167	-119.691	1899.13	83.3228	1.12712	0	-0.298976	0.375389	-5.95625	-0.261326	0	0	0	0	0	0	0	0	0
3.5	-57.0069	1947.2	84.5891	1.09388	0	-0.300542	0.199429	-6.81193	-0.29592	0	0	0	0	0	0	0	0	0
3.50833	6.5972	1945.98	81.9068	1.0628	0	-0.301405	-0.0226398	-6.67805	-0.281082	0	0	0	0	0	0	0	0	0
3.51667	70.6304	1898.09	79.9326	1.03146	0	-0.301758	-0.220856	-5.93518	-0.249943	0	0	0	0	0	0	0	0	0
3.525	129.68	1799.32	78.9413	0.999569	0	-0.302001	-0.357978	-4.96696	-0.217915	0	0	0	0	0	0	0	0	0
3.53333	180.389	1642.86	77.236	0.967309	0	-0.302463	-0.442564	-4.03057	-0.18949	0	0	0	0	0	0	0	0	0
3.54167	222.679	1428.74	73.4191	0.933213	0	-0.303214	-0.501863	-3.22002	-0.165469	0	0	0	0	0	0	0	0	0
